<?xml version="1.0" encoding="UTF-8"?><svg id="B_W" xmlns="http://www.w3.org/2000/svg" viewBox="0 0 850.39 850.39"><defs><style>.cls-1{opacity:.44;}.cls-1,.cls-2{fill:#fff;stroke-width:0px;}.cls-3{fill:none;stroke:#000;stroke-miterlimit:10;}</style></defs><g id="short_form"><path class="cls-2" d="m90.48,726.35h-.67l-42.97-63.02v95.37h-12.97v-117.95h13.48l42.97,64.36,42.97-64.36h13.48v117.95h-13.31v-95.54l-42.97,63.19Z"/><path class="cls-2" d="m390.49,722.9c-2.92,7.36-7.02,13.84-12.3,19.46-5.28,5.62-11.63,10.09-19.04,13.4-7.41,3.31-15.61,4.97-24.6,4.97s-17.16-1.63-24.52-4.89c-7.36-3.26-13.68-7.67-18.95-13.23-5.28-5.56-9.35-12.02-12.22-19.38-2.86-7.35-4.3-15.14-4.3-23.34s1.46-15.98,4.38-23.34c2.92-7.36,7.02-13.84,12.3-19.46,5.28-5.62,11.63-10.08,19.04-13.39,7.41-3.31,15.61-4.97,24.6-4.97s17.16,1.63,24.52,4.89c7.36,3.26,13.67,7.67,18.96,13.23,5.28,5.56,9.35,12.02,12.22,19.38,2.86,7.36,4.3,15.14,4.3,23.34s-1.46,15.98-4.38,23.34Zm-12.89-42.04c-2.3-5.95-5.53-11.12-9.69-15.5-4.16-4.38-9.07-7.86-14.74-10.45-5.67-2.58-11.88-3.88-18.62-3.88s-12.95,1.26-18.62,3.79c-5.67,2.53-10.53,5.98-14.57,10.36-4.04,4.38-7.22,9.52-9.52,15.42-2.3,5.9-3.45,12.22-3.45,18.95s1.15,13.09,3.45,19.04c2.3,5.96,5.53,11.12,9.69,15.5,4.15,4.38,9.07,7.86,14.74,10.45,5.67,2.58,11.88,3.88,18.62,3.88s12.95-1.26,18.62-3.79c5.67-2.53,10.53-5.98,14.57-10.36,4.04-4.38,7.22-9.52,9.52-15.42,2.3-5.9,3.45-12.22,3.45-18.95s-1.15-13.09-3.45-19.04Z"/><path class="cls-2" d="m574.2,758.7h-13.31v-105.64h-39.6v-12.3h92.5v12.3h-39.6v105.64Z"/><path class="cls-2" d="m810.43,737.39c-1.83,5.11-4.36,9.38-7.58,12.81-3.22,3.43-7.08,5.98-11.58,7.67-4.49,1.69-9.38,2.53-14.66,2.53-8.88,0-16.23-1.96-22.07-5.9-5.84-3.93-10.62-8.93-14.32-15l9.6-8.26c3.59,5.51,7.44,9.69,11.54,12.55,4.1,2.86,9.24,4.3,15.42,4.3,6.63,0,12.13-2.39,16.51-7.16,4.38-4.77,6.57-11.82,6.57-21.15v-79.03h13.31v78.86c0,6.74-.92,12.67-2.75,17.78Z"/><path class="cls-1" d="m365.2,248.79c-16.07-52.86-28.51-103.65-37.78-152.56h-115.89c-9.29,48.91-21.72,99.7-37.79,152.56l-15.7,43.38c-20.45,59.82-47.74,117.28-81.88,172.36-13.79,22.25-27.87,41.86-42.2,59.11h67.51c41.69-35.39,83.03-84.9,129.46-182.64,15.15-31.87,27.9-72.61,38.54-115.35,10.64,42.73,23.4,83.48,38.54,115.35,41.33,86.98,78.61,135.63,115.68,170.25v-117.44c-16.48-33.12-30.92-66.91-42.79-101.64l-15.7-43.38Z"/><path class="cls-2" d="m771.08,464.53c-34.14-55.08-61.45-112.54-81.9-172.36l-15.7-43.38c-16.06-52.86-28.51-103.65-37.78-152.56h-115.88c-9.29,48.91-21.74,99.7-37.81,152.56l-15.69,43.38c-11.87,34.72-26.3,68.51-42.78,101.64v117.44c37.08-34.61,74.35-83.27,115.69-170.25,15.15-31.87,27.9-72.61,38.55-115.35,10.61,42.73,23.37,83.48,38.53,115.35,46.44,97.75,87.77,147.26,129.47,182.64h67.5c-14.32-17.25-28.41-36.86-42.18-59.11Z"/></g><rect class="cls-3" x="0" y="0" width="850.39" height="850.39"/></svg>