<?xml version="1.0" encoding="UTF-8"?><svg id="COLOR" xmlns="http://www.w3.org/2000/svg" viewBox="0 0 2354.52 597.59"><defs><style>.cls-1{fill:#003057;stroke-width:0px;}</style></defs><g id="short_form"><path class="cls-1" d="m260.75,309.2h-1.84l-117.64-172.53v261.11h-35.52V74.84h36.91l117.64,176.23,117.64-176.23h36.91v322.93h-36.44V136.2l-117.64,173Z"/><path class="cls-1" d="m1082.14,299.74c-8,20.15-19.23,37.91-33.68,53.28-14.46,15.39-31.83,27.61-52.13,36.68-20.3,9.07-42.75,13.61-67.36,13.61s-46.98-4.46-67.12-13.38c-20.14-8.92-37.45-20.99-51.9-36.22-14.46-15.22-25.6-32.91-33.45-53.05-7.84-20.14-11.76-41.44-11.76-63.89s3.99-43.75,11.99-63.89c7.99-20.14,19.22-37.91,33.68-53.29,14.45-15.37,31.83-27.6,52.13-36.67,20.3-9.07,42.74-13.61,67.35-13.61s46.98,4.46,67.12,13.38c20.14,8.92,37.44,20.99,51.9,36.21,14.45,15.22,25.6,32.91,33.44,53.05,7.84,20.15,11.77,41.45,11.77,63.89s-4,43.76-11.99,63.9Zm-35.29-115.1c-6.31-16.3-15.15-30.45-26.52-42.44-11.38-11.99-24.84-21.52-40.37-28.6-15.53-7.08-32.52-10.61-50.98-10.61s-35.45,3.46-50.98,10.38c-15.53,6.92-28.83,16.37-39.9,28.37-11.07,11.99-19.77,26.07-26.07,42.21-6.31,16.15-9.46,33.44-9.46,51.9s3.15,35.83,9.46,52.13c6.3,16.31,15.15,30.45,26.53,42.44,11.38,11.99,24.83,21.53,40.36,28.6,15.53,7.08,32.52,10.61,50.98,10.61s35.44-3.46,50.98-10.38c15.53-6.92,28.83-16.38,39.91-28.38,11.07-11.99,19.76-26.06,26.06-42.21,6.3-16.14,9.46-33.44,9.46-51.9s-3.16-35.83-9.46-52.13Z"/><path class="cls-1" d="m1585.13,397.78h-36.44V108.53h-108.41v-33.68h253.27v33.68h-108.41v289.25Z"/><path class="cls-1" d="m2231.92,339.42c-5.02,14-11.94,25.69-20.76,35.07-8.83,9.39-19.4,16.37-31.7,20.99-12.3,4.62-25.68,6.92-40.13,6.92-24.3,0-44.45-5.37-60.43-16.14-16-10.76-29.06-24.45-39.21-41.06l26.3-22.61c9.84,15.07,20.37,26.53,31.6,34.37,11.22,7.84,25.29,11.76,42.21,11.76,18.14,0,33.22-6.53,45.21-19.6,11.99-13.07,17.99-32.37,17.99-57.9V74.84h36.44v215.9c0,18.45-2.51,34.68-7.52,48.67Z"/></g></svg>