<?xml version="1.0" encoding="UTF-8"?><svg id="B_W" xmlns="http://www.w3.org/2000/svg" viewBox="0 0 3795.72 709.66"><defs><style>.cls-1{opacity:.44;}.cls-1,.cls-2{fill:#fff;stroke-width:0px;}</style></defs><path class="cls-1" d="m287.6,283.26c-10.17-33.45-18.05-65.6-23.91-96.55h-73.35c-5.88,30.96-13.75,63.1-23.92,96.55l-9.94,27.45c-12.94,37.86-30.21,74.23-51.82,109.09-8.73,14.08-17.64,26.49-26.71,37.41h42.73c26.39-22.4,52.55-53.73,81.94-115.6,9.59-20.17,17.66-45.96,24.39-73,6.74,27.05,14.81,52.83,24.39,73,26.16,55.05,49.75,85.84,73.22,107.75v-74.33c-10.43-20.96-19.57-42.35-27.08-64.33l-9.94-27.45Z"/><path class="cls-2" d="m544.48,419.81c-21.61-34.86-38.89-71.23-51.83-109.09l-9.94-27.45c-10.16-33.45-18.05-65.6-23.91-96.55h-73.34c-5.88,30.96-13.76,63.1-23.93,96.55l-9.93,27.45c-7.51,21.98-16.65,43.36-27.08,64.33v74.33c23.47-21.91,47.06-52.7,73.22-107.75,9.59-20.17,17.66-45.96,24.4-73,6.72,27.05,14.79,52.83,24.39,73,29.39,61.86,55.55,93.2,81.94,115.6h42.72c-9.06-10.92-17.98-23.33-26.7-37.41Z"/><path class="cls-2" d="m736.27,407.44v51.83h-67.81v-82.5h41.67c18.98,0,26.14,7.67,26.14,30.67m-12.66,2.04c0-17.61-4.53-22.71-16.9-22.71h-25.61v62.46h42.51v-39.75Z"/><rect class="cls-2" x="758.39" y="376.75" width="12.94" height="46.74"/><polygon class="cls-2" points="831.68 386.79 787.27 386.79 787.27 362.99 799.62 362.99 799.62 376.75 848.2 376.75 817.65 459.25 804.18 459.25 831.68 386.79"/><path class="cls-2" d="m950.09,417.46c0,32.47-12.79,41.79-40.02,41.79h-38.39l-8.5-82.5h12.49l7.43,72.46h24.75c20.78,0,29.84-6.18,29.84-33v-39.46h12.4v40.71Zm-48.13-40.71h12.1v54.47h-12.1v-54.47Z"/><rect class="cls-2" x="974.95" y="376.75" width="12.94" height="82.5"/><path class="cls-2" d="m1049.47,415.26c0-22.44-5.77-28.48-22.96-28.48h-20.9v-10.03h23.66c24.2,0,33.15,8.64,33.15,37.41v45.09h-12.94v-43.98Z"/><rect class="cls-2" x="1084.12" y="376.75" width="12.93" height="46.74"/><path class="cls-2" d="m1233.33,411.96v47.31h-12.94v-46.21c0-20.22-6.6-26.29-20.75-26.29h-16.93v72.5h-29.27v-10.04h16.91v-62.46h-12.26v-10h44.31c21.17,0,30.94,8.64,30.94,35.19"/><rect class="cls-2" x="1257.65" y="376.75" width="12.93" height="82.5"/><path class="cls-2" d="m1287.2,459.26v-10.03h10.45c8.94,0,11.96-3.86,11.96-14.03v-48.4h-15.66v-10.03h28.6v59.94c0,16.78-5.1,22.55-20.22,22.55h-15.13Z"/><polygon class="cls-2" points="1382.64 386.79 1338.21 386.79 1338.21 362.99 1350.59 362.99 1350.59 376.75 1399.13 376.75 1368.61 459.25 1355.15 459.25 1382.64 386.79"/><polygon class="cls-2" points="1480.54 449.23 1480.54 459.26 1411.25 459.26 1411.25 449.23 1456.47 449.23 1456.47 386.8 1411.25 386.8 1411.25 376.76 1469.41 376.76 1469.41 449.23 1480.54 449.23"/><rect class="cls-2" x="1497.59" y="376.75" width="12.93" height="82.5"/><path class="cls-2" d="m1603.19,412.36c0,34.78-12.52,46.89-42.48,46.89h-19.95l-9.21-82.5h71.64v35.61Zm-12.79-25.58h-44.96l6.87,62.43h8.41c22.82,0,29.69-9.47,29.69-36.85v-25.58Z"/><path class="cls-2" d="m1691.74,459.25h-12.93v-72.46h-54.44v-10.03h67.37v82.5Zm-53.9,0h-12.93v-48.28h12.93v48.28Z"/><rect class="cls-2" x="1758.55" y="376.75" width="12.93" height="103.13"/><rect class="cls-2" x="1797.62" y="376.75" width="12.94" height="82.5"/><path class="cls-2" d="m1890.16,459.26l-33.68-48.28c-7.28,1.39-10.6,6.48-10.6,15.15v33.13h-12.79v-33.01c0-12.52,6.04-21.31,17.73-23.24l-18.27-26.25h13.21l31.2,44.54c7.43-1.24,11.01-5.5,11.01-14.86v-29.69h12.79v30.22c0,14.32-7.69,20.81-17.87,22.85l20.64,29.43h-13.36Z"/><rect class="cls-2" x="1923.69" y="376.75" width="12.94" height="46.74"/><path class="cls-2" d="m1997.81,386.79h-14.98c-4.82,4.26-8.79,11.42-4.94,30.66l8.37,41.8h-12.64l-8-39.87c-3.99-19.66.56-28.33,6.34-32.33l-.15-.26h-19.1v-10.03h45.09v10.03Z"/><rect class="cls-2" x="2014.45" y="376.75" width="12.94" height="82.5"/><path class="cls-2" d="m2118.41,415.66v43.6h-38.36v-10.04h25.42v-33.27c0-22.03-6.03-29.19-22.4-29.19h-9.5l-12.64,72.5h-13.06l13.06-72.5h-12.52v-10h36.85c23.53,0,33.15,10.15,33.15,38.9"/><path class="cls-2" d="m714.55,262.71h-.56l-30.82-46.16v70.37h-17.17v-98.51h18.44l29.98,46.58,29.98-46.58h18.44v98.51h-17.17v-70.65l-31.1,46.44Z"/><path class="cls-2" d="m881.46,244.27c0,7.32-1.01,13.74-3.03,19.28-2.02,5.54-4.86,10.16-8.52,13.86-3.66,3.71-8.09,6.47-13.3,8.3-5.21,1.83-11.05,2.75-17.52,2.75s-12.15-.92-17.31-2.75c-5.16-1.83-9.57-4.57-13.23-8.23-3.66-3.66-6.47-8.18-8.44-13.58-1.97-5.39-2.95-11.66-2.95-18.79v-56.72h17.17v56.01c0,9.2,2.22,16.18,6.65,20.97,4.43,4.78,10.57,7.18,18.4,7.18s13.82-2.3,18.26-6.9c4.43-4.6,6.65-11.45,6.65-20.55v-56.72h17.17v55.87Z"/><path class="cls-2" d="m931.28,219.22c.66,1.41,1.86,2.72,3.6,3.94,1.74,1.22,4.14,2.35,7.19,3.38,3.06,1.03,6.94,2.11,11.64,3.24,5.17,1.32,9.76,2.77,13.76,4.36,4,1.6,7.31,3.54,9.95,5.84,2.63,2.3,4.63,4.97,6,8.02,1.36,3.05,2.05,6.64,2.05,10.77,0,4.69-.86,8.87-2.58,12.53-1.72,3.66-4.12,6.76-7.19,9.29-3.07,2.53-6.76,4.46-11.07,5.77-4.31,1.31-9.04,1.97-14.2,1.97-7.6,0-14.87-1.29-21.81-3.87-6.94-2.58-13.37-6.54-19.28-11.89l10.41-12.38c4.78,4.13,9.62,7.3,14.5,9.5,4.88,2.21,10.41,3.31,16.61,3.31,5.35,0,9.59-1.13,12.74-3.38,3.14-2.25,4.71-5.3,4.71-9.15,0-1.78-.31-3.38-.92-4.78-.61-1.41-1.74-2.7-3.39-3.87-1.65-1.17-3.9-2.27-6.77-3.31-2.87-1.03-6.61-2.11-11.22-3.24-5.27-1.22-9.95-2.58-14.04-4.08-4.09-1.5-7.53-3.38-10.3-5.63-2.77-2.25-4.89-4.97-6.35-8.16-1.46-3.19-2.19-7.08-2.19-11.68,0-4.31.84-8.23,2.51-11.75s3.98-6.54,6.91-9.08c2.93-2.53,6.46-4.48,10.58-5.84,4.12-1.36,8.62-2.04,13.5-2.04,7.22,0,13.72,1.06,19.49,3.17,5.77,2.11,11.19,5.18,16.25,9.22l-9.29,13.09c-4.5-3.28-8.96-5.79-13.37-7.53-4.41-1.74-8.87-2.6-13.37-2.6-5.07,0-9.01,1.15-11.82,3.45-2.81,2.3-4.22,5.09-4.22,8.37,0,1.97.33,3.66.99,5.07Z"/><path class="cls-2" d="m1089.32,204.02h-55.73v25.33h49.4v15.62h-49.4v26.32h56.43v15.62h-73.6v-98.51h72.9v15.62Z"/><path class="cls-2" d="m1204,244.27c0,7.32-1.01,13.74-3.03,19.28-2.02,5.54-4.86,10.16-8.52,13.86-3.66,3.71-8.09,6.47-13.3,8.3-5.21,1.83-11.05,2.75-17.52,2.75s-12.15-.92-17.31-2.75c-5.16-1.83-9.57-4.57-13.23-8.23s-6.47-8.18-8.44-13.58c-1.97-5.39-2.95-11.66-2.95-18.79v-56.72h17.17v56.01c0,9.2,2.22,16.18,6.65,20.97,4.43,4.78,10.57,7.18,18.4,7.18s13.82-2.3,18.26-6.9c4.43-4.6,6.65-11.45,6.65-20.55v-56.72h17.17v55.87Z"/><path class="cls-2" d="m1286.89,262.71h-.56l-30.82-46.16v70.37h-17.17v-98.51h18.44l29.98,46.58,29.98-46.58h18.44v98.51h-17.17v-70.65l-31.1,46.44Z"/><path class="cls-2" d="m1518.66,257.22c-2.53,6.19-6.1,11.61-10.7,16.25-4.6,4.65-10.04,8.33-16.33,11.05-6.29,2.72-13.23,4.08-20.83,4.08s-14.54-1.34-20.83-4.01c-6.29-2.67-11.68-6.31-16.18-10.91-4.5-4.59-8.02-9.99-10.55-16.18-2.53-6.19-3.8-12.76-3.8-19.7s1.27-13.51,3.8-19.7c2.53-6.19,6.1-11.61,10.7-16.26,4.59-4.64,10.04-8.33,16.33-11.05,6.28-2.72,13.23-4.08,20.83-4.08s14.54,1.34,20.83,4.01c6.29,2.67,11.68,6.31,16.18,10.91,4.5,4.6,8.02,9.99,10.55,16.18,2.53,6.19,3.8,12.76,3.8,19.7s-1.27,13.51-3.8,19.7Zm-16.82-33c-1.64-4.27-3.94-8-6.9-11.19-2.95-3.19-6.5-5.72-10.63-7.6-4.13-1.88-8.63-2.82-13.51-2.82s-9.36.92-13.44,2.75c-4.08,1.83-7.58,4.32-10.48,7.46-2.91,3.14-5.18,6.85-6.83,11.12-1.64,4.27-2.46,8.8-2.46,13.58s.82,9.31,2.46,13.58c1.64,4.27,3.94,8,6.9,11.19,2.96,3.19,6.5,5.73,10.63,7.6,4.13,1.88,8.63,2.82,13.51,2.82s9.36-.92,13.44-2.75c4.08-1.83,7.58-4.31,10.48-7.46,2.91-3.14,5.18-6.85,6.83-11.12,1.64-4.27,2.46-8.8,2.46-13.58s-.82-9.31-2.46-13.58Z"/><path class="cls-2" d="m1627.16,204.02h-56.01v27.16h49.68v15.62h-49.68v40.11h-17.17v-98.51h73.18v15.62Z"/><path class="cls-2" d="m1751.27,286.91h-17.45v-82.47h-31.24v-16.04h79.94v16.04h-31.24v82.47Z"/><path class="cls-2" d="m1906.21,257.22c-2.53,6.19-6.1,11.61-10.7,16.25-4.6,4.65-10.04,8.33-16.32,11.05-6.29,2.72-13.23,4.08-20.83,4.08s-14.54-1.34-20.83-4.01c-6.29-2.67-11.68-6.31-16.18-10.91-4.5-4.59-8.02-9.99-10.55-16.18-2.53-6.19-3.8-12.76-3.8-19.7s1.27-13.51,3.8-19.7c2.53-6.19,6.1-11.61,10.7-16.26,4.59-4.64,10.04-8.33,16.33-11.05,6.28-2.72,13.23-4.08,20.83-4.08s14.54,1.34,20.83,4.01c6.28,2.67,11.68,6.31,16.18,10.91,4.5,4.6,8.02,9.99,10.55,16.18,2.53,6.19,3.8,12.76,3.8,19.7s-1.27,13.51-3.8,19.7Zm-16.82-33c-1.64-4.27-3.94-8-6.89-11.19-2.96-3.19-6.5-5.72-10.63-7.6-4.13-1.88-8.63-2.82-13.51-2.82s-9.36.92-13.44,2.75c-4.08,1.83-7.58,4.32-10.48,7.46-2.91,3.14-5.18,6.85-6.83,11.12-1.64,4.27-2.46,8.8-2.46,13.58s.82,9.31,2.46,13.58c1.64,4.27,3.94,8,6.9,11.19,2.96,3.19,6.5,5.73,10.63,7.6,4.13,1.88,8.63,2.82,13.51,2.82s9.36-.92,13.44-2.75c4.08-1.83,7.57-4.31,10.49-7.46,2.91-3.14,5.18-6.85,6.82-11.12,1.64-4.27,2.46-8.8,2.46-13.58s-.82-9.31-2.46-13.58Z"/><path class="cls-2" d="m1941.54,188.4h17.17v82.89h51.79v15.62h-68.96v-98.51Z"/><path class="cls-2" d="m2112.11,204.02h-55.73v25.33h49.4v15.62h-49.4v26.32h56.43v15.62h-73.6v-98.51h72.9v15.62Z"/><path class="cls-2" d="m2207.23,286.91l-24.28-34.34h-21.74v34.34h-17.17v-98.51h43.91c5.63,0,10.72.73,15.27,2.18,4.55,1.46,8.4,3.52,11.54,6.19,3.14,2.67,5.56,5.96,7.25,9.85,1.69,3.89,2.53,8.23,2.53,13.02,0,4.13-.59,7.81-1.76,11.05-1.17,3.24-2.79,6.1-4.86,8.59-2.07,2.49-4.53,4.6-7.39,6.33-2.86,1.74-6.03,3.07-9.5,4.01l26.6,37.29h-20.41Zm-5.65-78.72c-3.58-2.78-8.61-4.17-15.1-4.17h-25.27v33.21h25.41c6.21,0,11.15-1.51,14.82-4.52,3.67-3.01,5.51-7.07,5.51-12.16,0-5.46-1.79-9.59-5.36-12.37Z"/><path class="cls-2" d="m2350.63,286.91h-18.3l-9.99-23.78h-46.58l-10.13,23.78h-17.73l43.35-99.22h16.04l43.35,99.22Zm-51.65-78.53l-16.89,39.41h33.92l-17.03-39.41Z"/><path class="cls-2" d="m2446.75,188.4h17.17v98.51h-14.47l-54.21-70.08v70.08h-17.17v-98.51h16.01l52.67,68.12v-68.12Z"/><path class="cls-2" d="m2577.55,278.4c-2.77,2.11-5.75,3.94-8.94,5.49-3.19,1.55-6.69,2.72-10.48,3.52-3.8.8-8,1.2-12.6,1.2-7.23,0-13.89-1.31-19.98-3.94-6.1-2.63-11.38-6.21-15.83-10.77-4.46-4.55-7.95-9.92-10.48-16.11-2.53-6.19-3.8-12.85-3.8-19.98s1.24-13.65,3.73-19.84c2.48-6.19,5.98-11.61,10.48-16.25,4.5-4.65,9.85-8.3,16.04-10.98,6.19-2.67,13.04-4.01,20.55-4.01,4.5,0,8.61.38,12.31,1.13,3.71.75,7.11,1.81,10.2,3.17,3.1,1.36,5.96,2.98,8.59,4.86,2.63,1.88,5.11,3.94,7.46,6.19l-11.12,12.81c-3.94-3.66-8.12-6.61-12.52-8.87-4.41-2.25-9.43-3.38-15.06-3.38-4.69,0-9.03.92-13.02,2.75-3.99,1.83-7.44,4.32-10.34,7.46-2.91,3.14-5.16,6.83-6.76,11.05-1.6,4.22-2.39,8.77-2.39,13.65s.8,9.45,2.39,13.72c1.59,4.27,3.85,8,6.76,11.19,2.91,3.19,6.35,5.7,10.34,7.53,3.99,1.83,8.33,2.75,13.02,2.75,6,0,11.16-1.15,15.48-3.45,4.31-2.3,8.59-5.42,12.81-9.36l11.12,11.26c-2.53,2.72-5.18,5.14-7.95,7.25Z"/><path class="cls-2" d="m2687.1,204.02h-55.73v25.33h49.4v15.62h-49.4v26.32h56.43v15.62h-73.6v-98.51h72.9v15.62Z"/><path class="cls-2" d="m2824.25,268.69c-1.64,4.36-3.92,8-6.83,10.91-2.91,2.91-6.38,5.09-10.41,6.54-4.03,1.45-8.49,2.18-13.37,2.18-7.6,0-13.93-1.52-19-4.57-5.07-3.05-9.24-6.83-12.53-11.33l11.4-11.68c2.91,3.66,5.89,6.5,8.94,8.51,3.05,2.02,6.69,3.03,10.91,3.03,4.69,0,8.47-1.57,11.33-4.71,2.86-3.14,4.29-8,4.29-14.57v-64.6h17.73v65.02c0,5.82-.82,10.91-2.46,15.27Z"/><path class="cls-2" d="m2933.95,204.02h-55.73v25.33h49.4v15.62h-49.4v26.32h56.43v15.62h-73.6v-98.51h72.9v15.62Z"/><path class="cls-2" d="m3029.07,286.91l-24.28-34.34h-21.74v34.34h-17.17v-98.51h43.91c5.63,0,10.72.73,15.27,2.18,4.55,1.46,8.4,3.52,11.54,6.19,3.14,2.67,5.56,5.96,7.25,9.85,1.69,3.89,2.53,8.23,2.53,13.02,0,4.13-.59,7.81-1.76,11.05-1.17,3.24-2.79,6.1-4.86,8.59-2.07,2.49-4.53,4.6-7.39,6.33-2.86,1.74-6.03,3.07-9.5,4.01l26.6,37.29h-20.41Zm-5.65-78.72c-3.58-2.78-8.61-4.17-15.1-4.17h-25.27v33.21h25.41c6.21,0,11.15-1.51,14.82-4.52,3.67-3.01,5.51-7.07,5.51-12.16,0-5.46-1.79-9.59-5.36-12.37Z"/><path class="cls-2" d="m3160.94,244.27c0,7.32-1.01,13.74-3.03,19.28-2.02,5.54-4.86,10.16-8.51,13.86-3.66,3.71-8.09,6.47-13.3,8.3-5.21,1.83-11.05,2.75-17.52,2.75s-12.15-.92-17.31-2.75c-5.16-1.83-9.57-4.57-13.23-8.23-3.66-3.66-6.47-8.18-8.44-13.58-1.97-5.39-2.95-11.66-2.95-18.79v-56.72h17.17v56.01c0,9.2,2.22,16.18,6.65,20.97,4.43,4.78,10.57,7.18,18.4,7.18s13.82-2.3,18.26-6.9c4.43-4.6,6.65-11.45,6.65-20.55v-56.72h17.17v55.87Z"/><path class="cls-2" d="m3210.75,219.22c.66,1.41,1.86,2.72,3.6,3.94,1.74,1.22,4.14,2.35,7.19,3.38,3.06,1.03,6.94,2.11,11.64,3.24,5.17,1.32,9.76,2.77,13.76,4.36,4,1.6,7.31,3.54,9.95,5.84,2.63,2.3,4.63,4.97,6,8.02,1.36,3.05,2.05,6.64,2.05,10.77,0,4.69-.86,8.87-2.58,12.53-1.72,3.66-4.12,6.76-7.19,9.29-3.07,2.53-6.76,4.46-11.07,5.77-4.31,1.31-9.04,1.97-14.2,1.97-7.6,0-14.87-1.29-21.81-3.87-6.94-2.58-13.37-6.54-19.28-11.89l10.41-12.38c4.78,4.13,9.62,7.3,14.5,9.5,4.88,2.21,10.41,3.31,16.61,3.31,5.35,0,9.59-1.13,12.74-3.38,3.14-2.25,4.71-5.3,4.71-9.15,0-1.78-.31-3.38-.92-4.78-.61-1.41-1.74-2.7-3.39-3.87-1.65-1.17-3.9-2.27-6.77-3.31-2.87-1.03-6.61-2.11-11.22-3.24-5.27-1.22-9.95-2.58-14.04-4.08-4.09-1.5-7.52-3.38-10.3-5.63-2.77-2.25-4.89-4.97-6.35-8.16-1.46-3.19-2.19-7.08-2.19-11.68,0-4.31.84-8.23,2.51-11.75s3.98-6.54,6.91-9.08c2.93-2.53,6.46-4.48,10.58-5.84,4.12-1.36,8.62-2.04,13.5-2.04,7.22,0,13.72,1.06,19.49,3.17,5.77,2.11,11.19,5.18,16.25,9.22l-9.29,13.09c-4.5-3.28-8.96-5.79-13.37-7.53-4.41-1.74-8.87-2.6-13.37-2.6-5.07,0-9.01,1.15-11.82,3.45-2.81,2.3-4.22,5.09-4.22,8.37,0,1.97.33,3.66.99,5.07Z"/><path class="cls-2" d="m3390.18,286.91h-18.3l-9.99-23.78h-46.58l-10.13,23.78h-17.73l43.35-99.22h16.04l43.35,99.22Zm-51.65-78.53l-16.89,39.41h33.92l-17.03-39.41Z"/><path class="cls-2" d="m3417.62,188.4h17.17v82.89h51.79v15.62h-68.96v-98.51Z"/><path class="cls-2" d="m3588.19,204.02h-55.73v25.33h49.4v15.62h-49.4v26.32h56.43v15.62h-73.6v-98.51h72.9v15.62Z"/><path class="cls-2" d="m3668.69,262.71h-.56l-30.82-46.16v70.37h-17.17v-98.51h18.44l29.98,46.58,29.98-46.58h18.44v98.51h-17.17v-70.65l-31.1,46.44Z"/><circle class="cls-2" cx="2222.29" cy="418.02" r="13.46"/><path class="cls-2" d="m2440.75,408.78c-3.52,2.94-6.62,6.57-9.75,10.23,2.02,6.54,3.54,13.83,3.54,18.17,0,3.31-2.73,5.05-5.86,5.05-5.27,0-11.89-3.39-11.89-12.47,0-3.08.22-6.98,1.07-11.01l-.41-.58-6.62,3.85-2.76,10.83c-1.13,4.1-3.36,6.71-6.23,8.53-2.49,1.66-5.41,2.42-7.38,2.42-6.85,0-7.65-6.41-9.08-9.84-1.96-5.86-3.98-11.18-7.06-16.69h-.55c-2.99,4.07-5.41,7.97-7.29,11.81,6.18,11.62,10.3,17.58,11.36,30.29-2.95,11.63-19.54,21.64-32.91,21.64-14.45,0-26.93-8.58-26.93-26.7,0-6.67,2.1-13.5,5.27-20.67l-4.2-2.01c-5.06,7.88-8.37,19.02-8.37,30.96,0,19.32,10.69,33.9,32.12,33.9,15.39,0,31.71-8.95,37.21-21.65,2.02-4.51,3.36-9.61,3.77-16.78h2.9c9.26,0,15.03-5.01,18.78-10.42h.23c3.98,5.64,9.71,8.72,14.9,8.72,6.85,0,12.47-5.63,15.7-12.7,1.52-3.61,3.4-9.17,3.4-14.12s-.88-12.66-2.41-20.4l-.55-.35Z"/><path class="cls-2" d="m2595.41,366.59c-4.28-4.65-8.09-8.33-12.6-11.86-2.74,2.9-5.87,6.53-8.72,10.55,4.43,3.62,8.41,7.17,12.92,11.5,3.09-2.9,5.32-5.77,8.4-10.19"/><path class="cls-2" d="m2574.1,368.02c-4.34-4.64-8.09-8.32-12.61-11.84-2.76,2.9-5.86,6.53-8.72,10.51,4.44,3.66,8.42,7.2,12.93,11.48,3.08-2.87,5.32-5.72,8.4-10.15"/><path class="cls-2" d="m2637.3,347.59l-.76-.58c-2.42,2.1-4.56,4.2-6.09,6.09-2.19,2.46-3.31,4.96-3.31,7.42,0,4.07.67,8.69,1.12,13.78,1.75,20.35,2.95,39.67,3.18,57.33,0,5.77-1.97,9.71-5.86,11.94-4.74,2.55-8.81,3-12.35,3h-6c-7.38,0-13.01-.81-17.22-2.02,4.38-7.61,7.38-15.57,7.38-25.72,0-5.45-1.52-10.64-4.16-15.7-4.12-7.87-8.99-12.24-12.93-12.24s-10.96,4.07-16.68,10.23c-7.43,7.78-9.98,17.58-9.98,25.99,0,5.42.36,10.83,3.89,16.78-4.88,1.11-11.71,2.69-17.8,2.69h-3.77c-8.27,0-15.47-5.77-17.44-16.68-3-16.28-6.4-33.28-10.51-49.16l-.67-.49c-2.87,3.53-5.29,7.52-7.83,11.39,5.19,18.88,9.16,33.6,9.16,41.12,0,2.63-3.08,5.95-7.2,8.27-5.18,3-12.12,5.55-17.98,5.55-10.6,0-15.11-5.64-15.61-14.81l-4.3.32c-.22,2.76-.31,5.4-.31,8.18,0,12.93,6.85,20.43,19.24,20.43,7.38,0,14.88-2.99,22.17-7.42,4.74-2.87,7.07-6.4,7.96-10.59h.54c4.29,13.77,12.62,18.01,22.54,18.01h2.11v-.03.03h1.96c7.56,0,17.57-2.14,31.62-7.06,14,4.92,25.04,7.06,36.09,7.06h3.22v-.03h1.65c4.35,0,9.53-1.08,13.82-3.27,5.11-2.55,7.75-7.21,10.07-12.83,3.18-6.67,4.42-15.78,4.42-27.73s-1.03-25.64-1.47-38.34c2.69-1.88,5.01-3.75,6.97-5.63-5.77-9.49-9.16-18.12-8.93-25.27m-63.43,92.76c-9.47-2.81-13.59-8.31-15.11-14.67,1.96-8.18,10.37-18.42,19-18.42,4.53,0,7.96,4.07,10.91,9.87,1.12,2.2,2.69,6,2.69,9.98,0,4.52-9.89,11.72-17.5,13.24Z"/><path class="cls-2" d="m2673.41,349.24c-3.45,3.08-7.74,7.74-10.83,11.71,1.75,19.06,3.98,48.49,3.98,68.71v10.81c0,7.29-.09,15.13-1.2,22.06l1.43.8c6.39-7.06,9.39-11.72,9.7-17.8.58-4.83.76-11.5.76-18.21,0-25.77-.54-53.67-2.87-77.79l-.97-.3Z"/><polygon class="cls-2" points="2741.7 429 2780.12 429 2782.58 419.7 2743.89 419.7 2741.7 429"/><path class="cls-2" d="m2911.48,509.63c-30.81,0-55.1-13.27-55.1-36.28,0-14.67,16.46-27.46,40.87-36.75,5.06-1.75,21.96-6.49,29.48-7.3l6.62-11.14-.09-.23-9.75.1c-8.18-.1-13.59-1.52-18.88-3.53-17.43-7.03-28.84-9.62-36.22-9.62-13.29,0-23.08,7.66-23.97,19.95l6.39,17.4,1.22-.32,3.08-8.72-2.19-9.3c3.09-3.5,7.75-5.5,14-5.5,10.21,0,17.95,1.43,30.73,6.21l.14.27c-27.51,6.53-49.7,27.43-49.7,53.72,0,30.69,24.2,44.86,53.22,44.86,7.84,0,15.13-.89,20.9-2.01,6.03-3.45,12.33-8.5,17.98-13.11l-.32-1.17c-9.08,1.48-18.47,2.46-28.4,2.46"/><path class="cls-2" d="m2982.61,407.23c-5.27,0-9.79,2.64-13.91,6.39-4.07,4.42-6.94,8.95-8.18,13.37-3.98,13.91-10.38,19.54-18.53,19.54h-8.09c-11.36,0-19.1-3.44-19.55-12.83l-.35-.09-3.98,2.68c-.17,2.09-.31,4.07-.31,6.17,0,13.25,9.53,18.21,23.75,18.21h6.09s0,.05.05.05h1.82c9.98,0,16.25-4.7,19.11-14.41h.8c10.95,8.05,21.87,13.01,32.79,13.01,5.32,0,9.39-4.16,11.71-14.21-1.73-19.33-9.7-37.89-23.21-37.89m11.18,38.1c-4.42,0-8.94-1.43-13.14-3.17-6.62-2.82-12.25-6.32-15.57-11.27,3.22-7.29,8.51-10.83,14.81-10.83,6.94,0,14.23,7.38,17.44,24.07-.44.99-1.87,1.2-3.54,1.2Z"/><path class="cls-2" d="m3210.99,393.1c-4.29-4.66-8.06-8.32-12.56-11.85-2.78,2.9-5.91,6.53-8.78,10.51,4.43,3.66,8.42,7.2,12.98,11.5,3.03-2.87,5.27-5.73,8.36-10.16"/><path class="cls-2" d="m3189.67,394.53c-4.34-4.65-8.06-8.32-12.56-11.84-2.78,2.91-5.91,6.53-8.78,10.51,4.42,3.66,8.41,7.21,12.97,11.49,3.04-2.9,5.27-5.72,8.37-10.16"/><path class="cls-2" d="m3243.02,347.58l-.76-.58c-2.41,2.1-4.51,4.21-6.09,6.08-2.18,2.46-3.31,4.96-3.31,7.42,0,4.07.67,8.68,1.12,13.83,1.74,20.3,2.94,39.62,3.17,57.29,0,5.77-1.96,9.75-5.86,11.94-4.74,2.55-8.81,2.99-12.35,2.99h-4.42c-5.86,0-10.15-1.57-13.69-4.42-2.63-2.1-3.66-5.33-3.66-9.18,0-2.46.9-7.2,2.42-12.83l-.63-.76-7.65,5.54-3.22,11.9c-1.65,6.31-10.46,9.75-18.97,9.75h-4.87c-10.51,0-18.17-3.22-18.17-11.94,0-4.12,1.34-10.28,2.82-15.17l-.46-.26-8.4,5.63c-1.12,4.83-1.74,6.94-2.23,8.69-1.29,4.74-3.09,8.4-6.4,10.59-1.65,1.12-3.93,2.46-7.59,2.46-4.35,0-6.23-3.44-6.23-6.44,0-4.03,1.25-8.14,4.56-16.55l-.45-.46-8.4,3.85-2.65,6.53c-1.65,3.89-4.42,7.73-7.2,9.75-2.85,2.19-6.39,3.31-9.56,3.31-3.45,0-6-2.1-6-5.55,0-3.25,2.99-8.49,7.2-15.78l-.44-.53-8.51,2.95-5.54,8.63c-5.5,7.48-13.23,10.15-23.3,10.29h-5.33c-1.43,0-4.3-.23-7.06-1.2-4.3-1.61-8.28-4.8-8.28-11.85v-6.32c0-27.15,0-55.78-1.75-79.96l-.8-.46c-3.18,2.55-6.62,6.23-10.39,10.29,1.66,23.39,2.87,45.45,2.87,66.38,0,16.28.14,24.1,6.84,30.95,4.56,4.53,10.2,6.31,18.92,6.31h1.2v-.05.05h1.89c7.51,0,16.81-1.57,23.52-9.39h.45c.66,6.53,4.51,9.39,10.6,9.39,8.18,0,14.12-3.8,19.09-9.18h.45c1.78,7.75,7.29,9.18,12.03,9.18,6.44,0,12.7-3.09,18.91-10.38h.67c2.74,6.18,9.04,10.38,22.73,10.38h2.76v-.05.05h2.1c9.53,0,18.25-3.89,22.01-11.27h.44c3.75,8.27,11.89,11.27,22.72,11.27h2.55v-.05h1.66c4.34,0,9.53-1.07,13.82-3.26,5.1-2.55,7.74-7.21,10.07-12.84,3.17-6.62,4.42-15.79,4.42-27.73s-.99-25.58-1.49-38.33c2.69-1.89,5.01-3.76,6.99-5.64-5.77-9.43-9.16-18.12-8.95-25.27"/><path class="cls-2" d="m3279.14,349.24c-3.4,3.08-7.73,7.74-10.82,11.71,1.75,19.06,3.98,48.49,3.98,68.71v10.81c0,7.29-.08,15.13-1.2,22.06l1.43.8c6.4-7.06,9.4-11.72,9.71-17.8.57-4.83.76-11.5.76-18.21,0-25.77-.54-53.67-2.86-77.79l-.99-.3Z"/><path class="cls-2" d="m3473.58,364.57c-4.3-4.52-8.72-8.46-13.23-11.8-2.99,3.43-6,7.29-8.99,11.27,4.48,3.75,8.76,7.29,13.06,11.36,3.75-3.18,6.71-6.85,9.16-10.83"/><path class="cls-2" d="m3597.31,418.24l-.21-.22h-9.62c-6.94,0-13.59-1.52-18.87-3.63-17.45-6.94-28.81-9.52-36.24-9.52-13.24,0-23.08,7.64-23.98,19.94l5.42,14.54h1.08l3.35-9.94-1.34-5.54c3.09-3.49,7.75-5.5,14.05-5.5,10.16,0,21.87,2.99,34.66,7.73l-.09.46c-22.77,13.68-41.1,19.99-58.99,19.99h-10.28c-7.43,0-13.07-.81-17.23-2.01,4.38-7.61,7.38-15.57,7.38-25.73,0-5.41-1.51-10.6-4.2-15.7-3.98-7.74-8.95-12.26-12.93-12.26s-10.91,4.21-16.69,10.24c-7.51,7.96-9.93,17.59-9.93,25.99,0,5.45.37,10.86,3.89,16.78l.85,1.47c-13.15,3.18-27.68,4.83-40.65,4.83-13.78,0-26.08-1.65-35.12-7.06-8.72-5.28-14.58-14.14-14.58-24.42,0-4.83,1.11-10.47,3.18-16.77l-4.39-1.88c-4.74,8.94-6.53,17.75-6.53,26.74,0,13.46,6.39,23.62,16.23,29.92,9.71,6.18,22.77,8.51,37.89,8.51,17.81,0,43.12-4.07,60.12-10.47,14,4.97,22.32,5.91,33,5.91h8.32c17.9,0,33.15-4.92,48.49-14.76l18.43-12.03c3.66-2.33,9.89-4.21,18.7-4.21l6.83-11.41Zm-133.77,22.77c-9.48-2.81-14.28-8.94-15.83-15.34,2.02-8.14,10.42-18.48,19-18.48,4.56,0,8.01,4.12,10.97,9.98,1.11,2.23,2.63,6,2.63,9.93,0,4.57-9.17,12.03-16.78,13.91Z"/><path class="cls-2" d="m3623.84,394.53c-4.28-4.65-8.05-8.32-12.56-11.84-2.78,2.91-5.91,6.53-8.76,10.51,4.42,3.66,8.4,7.21,12.97,11.49,3.04-2.9,5.27-5.72,8.36-10.16"/><path class="cls-2" d="m3645.16,393.1c-4.3-4.66-8.05-8.32-12.58-11.85-2.76,2.9-5.86,6.53-8.76,10.51,4.42,3.66,8.4,7.2,12.97,11.5,3.08-2.87,5.27-5.73,8.37-10.16"/><path class="cls-2" d="m3693.74,407.23c-5.27,0-9.78,2.64-13.9,6.39-4.07,4.42-6.94,8.95-8.14,13.37-3.98,13.91-10.42,19.54-18.56,19.54h-4.42c-5.86,0-10.16-1.56-13.7-4.37-2.67-2.11-3.66-5.32-3.66-9.17,0-2.46.9-7.21,2.42-12.84l-.64-.76-7.64,5.51-3.22,11.94c-1.66,6.26-10.47,9.7-18.97,9.7h-5.45c-11.36,0-19.11-3.44-19.55-12.83l-.32-.09-3.98,2.68c-.21,2.09-.35,4.07-.35,6.17,0,13.25,9.53,18.21,23.8,18.21h3.4v.05h2.1c9.52,0,18.24-3.89,22.01-11.27h.44c3.75,8.23,11.89,11.27,22.72,11.27h4.48c9.92,0,16.19-4.7,19.09-14.41h.76c10.95,8.05,21.87,13.01,32.79,13.01,5.32,0,9.4-4.16,11.71-14.21-1.78-19.33-9.7-37.89-23.21-37.89m11.18,38.1c-4.42,0-8.93-1.43-13.14-3.17-6.62-2.82-12.26-6.32-15.57-11.27,3.22-7.29,8.51-10.83,14.77-10.83,6.98,0,14.27,7.38,17.49,24.07-.45.99-1.88,1.2-3.54,1.2Z"/></svg>